<?xml version="1.0" encoding="UTF-8"?>
<!DOCTYPE svg PUBLIC "-//W3C//DTD SVG 1.0//EN" "http://www.w3.org/TR/2001/REC-SVG-20010904/DTD/svg10.dtd">
<!-- Creator: CorelDRAW X6 -->
<svg xmlns="http://www.w3.org/2000/svg" xml:space="preserve" width="100px" height="100px" version="1.0" shape-rendering="geometricPrecision" text-rendering="geometricPrecision" image-rendering="optimizeQuality" fill-rule="evenodd" clip-rule="evenodd"
viewBox="0 0 100 100"
 xmlns:xlink="http://www.w3.org/1999/xlink">
 <g id="Слой_x0020_1">
  <metadata id="CorelCorpID_0Corel-Layer"/>
  <line fill="none" stroke="#2A2A29" stroke-width="0.500031" x1="50" y1="4" x2="10" y2= "20" />
  <line fill="none" stroke="#2A2A29" stroke-width="0.500031" x1="50" y1="4" x2="90" y2= "20" />
  <line fill="none" stroke="#2A2A29" stroke-width="0.500031" x1="50" y1="91" x2="90" y2= "75" />
  <line fill="none" stroke="#2A2A29" stroke-width="0.500031" x1="50" y1="90" x2="10" y2= "75" />
  <line fill="none" stroke="#2A2A29" stroke-width="0.500031" x1="11" y1="20" x2="11" y2= "75" />
  <line fill="none" stroke="#2A2A29" stroke-width="0.500031" x1="89" y1="20" x2="89" y2= "75" />
  <line fill="none" stroke="#2A2A29" stroke-width="0.500031" x1="11" y1="21" x2="89" y2= "21" />
  <line fill="none" stroke="#2A2A29" stroke-width="0.500031" x1="11" y1="75" x2="89" y2= "75" />
  <line fill="none" stroke="#2A2A29" stroke-width="0.500031" x1="11" y1="39" x2="89" y2= "39" />
  <line fill="none" stroke="#2A2A29" stroke-width="0.500031" x1="11" y1="57" x2="88" y2= "57" />
  <line fill="none" stroke="#2A2A29" stroke-width="0.500031" x1="11" y1="75" x2="11" y2= "97" />
  <line fill="none" stroke="#2A2A29" stroke-width="0.500031" x1="89" y1="75" x2="89" y2= "97" />
  <line fill="none" stroke="#2A2A29" stroke-width="0.500031" x1="11" y1="97" x2="15" y2= "97" />
  <line fill="none" stroke="#2A2A29" stroke-width="0.500031" x1="15" y1="77" x2="15" y2= "97" />
  <line fill="none" stroke="#2A2A29" stroke-width="0.500031" x1="89" y1="97" x2="85" y2= "97" />
  <line fill="none" stroke="#2A2A29" stroke-width="0.500031" x1="85" y1="77" x2="85" y2= "97" />
 </g>
</svg>
